<?xml version="1.0" encoding="UTF-8" standalone="no"?>
<!-- Generator: Adobe Illustrator 15.1.0, SVG Export Plug-In . SVG Version: 6.00 Build 0)  -->

<svg
   xmlns:dc="http://purl.org/dc/elements/1.1/"
   xmlns:cc="http://creativecommons.org/ns#"
   xmlns:rdf="http://www.w3.org/1999/02/22-rdf-syntax-ns#"
   xmlns:svg="http://www.w3.org/2000/svg"
   xmlns="http://www.w3.org/2000/svg"
   xmlns:sodipodi="http://sodipodi.sourceforge.net/DTD/sodipodi-0.dtd"
   xmlns:inkscape="http://www.inkscape.org/namespaces/inkscape"
   version="1.1"
   id="Layer_1"
   x="0px"
   y="0px"
   width="1024px"
   height="600px"
   viewBox="0 0 1024 600"
   enable-background="new 0 0 1024 600"
   xml:space="preserve"
   inkscape:version="0.91 r13725"
   sodipodi:docname="logo.svg"><metadata
     id="metadata4215"><rdf:RDF><cc:Work
         rdf:about=""><dc:format>image/svg+xml</dc:format><dc:type
           rdf:resource="http://purl.org/dc/dcmitype/StillImage" /><dc:title></dc:title></cc:Work></rdf:RDF></metadata><defs
     id="defs4213" /><sodipodi:namedview
     pagecolor="#ffffff"
     bordercolor="#666666"
     borderopacity="1"
     objecttolerance="10"
     gridtolerance="10"
     guidetolerance="10"
     inkscape:pageopacity="0"
     inkscape:pageshadow="2"
     inkscape:window-width="1366"
     inkscape:window-height="706"
     id="namedview4211"
     showgrid="false"
     inkscape:zoom="0.89453125"
     inkscape:cx="734.57118"
     inkscape:cy="300"
     inkscape:window-x="-8"
     inkscape:window-y="-8"
     inkscape:window-maximized="1"
     inkscape:current-layer="g4187" /><g
     id="g4137"
     transform="matrix(1.2744688,0,0,1.1341765,-33.206058,-163.76891)"><polygon
       points="323.45,228.35 296.352,531.921 174.543,565.69 53.07,531.97 26,228.35 "
       id="polygon4139"
       style="fill:#e45126" /><polygon
       points="174.725,253.175 174.725,539.878 273.152,512.591 296.31,253.175 "
       id="polygon4141"
       style="fill:#f1682b" /><polygon
       points="82.242,300.404 91.394,403.02 174.725,403.02 174.725,365.784 125.45,365.784 122.046,327.652 174.725,327.652 174.725,290.413 174.596,290.413 81.35,290.413 "
       id="polygon4143"
       style="fill:#ebebeb" /><polygon
       points="98.275,480.108 174.553,501.284 174.725,501.235 174.725,462.491 174.562,462.538 133.09,451.338 130.438,421.641 110.287,421.641 93.058,421.641 "
       id="polygon4145"
       style="fill:#ebebeb" /><g
       id="g4147"><path
         d="m 53.675,145.838 18.924,0 0,18.696 17.311,0 0,-18.696 18.925,0 0,56.618 -18.924,0 0,-18.958 -17.31,0 0,18.958 -18.926,0 0,-56.618 0,0 z"
         id="path4149"
         inkscape:connector-curvature="0"
         style="fill:#020202" /><path
         d="m 133.719,164.614 -16.66,0 0,-18.775 52.252,0 0,18.775 -16.667,0 0,37.843 -18.924,0 -0.001,-37.843 0,0 z"
         id="path4151"
         inkscape:connector-curvature="0"
         style="fill:#020202" /><path
         d="m 177.604,145.838 19.733,0 12.137,19.894 12.127,-19.894 19.739,0 0,56.618 -18.846,0 0,-28.063 -13.021,20.13 -0.325,0 -13.028,-20.13 0,28.063 -18.517,0 0.001,-56.618 0,0 z"
         id="path4153"
         inkscape:connector-curvature="0"
         style="fill:#020202" /><path
         d="m 250.758,145.838 18.929,0 0,37.903 26.612,0 0,18.714 -45.542,0 0.001,-56.617 0,0 z"
         id="path4155"
         inkscape:connector-curvature="0"
         style="fill:#020202" /></g><polygon
       points="251.12,365.784 174.596,365.784 174.596,403.02 220.45,403.02 216.128,451.312 174.596,462.524 174.596,501.267 250.936,480.108 251.495,473.817 260.246,375.783 261.154,365.784 "
       id="polygon4157"
       style="fill:#ffffff" /><polygon
       points="265.29,319.282 266.986,300.404 267.877,290.413 174.596,290.413 174.596,313.541 174.596,327.56 174.596,327.652 264.423,327.652 264.423,327.652 264.543,327.652 "
       id="polygon4159"
       style="fill:#ffffff" /></g><g
     id="g4161"
     transform="matrix(1.2744688,0,0,1.1341765,-249.38714,-162.50101)"><g
       id="g4163"><polygon
         points="881.746,186.979 907.416,186.979 881.746,159.119 881.746,145.838 933.643,145.838 933.643,161.385 933.643,161.385 908.954,161.385 934.629,189.244 934.629,202.504 881.746,202.504 "
         id="polygon4165"
         style="fill:#151515" /><polygon
         points="819.367,186.979 845.039,186.979 819.367,159.119 819.367,145.838 871.265,145.838 871.265,161.385 871.265,161.385 846.576,161.385 872.25,189.244 872.25,202.504 819.367,202.504 "
         id="polygon4167"
         style="fill:#151515" /><polygon
         points="763.923,202.504 763.923,145.838 809.496,145.838 809.496,162.016 782.856,162.016 782.856,186.329 809.496,186.329 809.496,202.504 "
         id="polygon4169"
         style="fill:#151515" /></g><polygon
       points="970.903,531.945 849.093,565.715 727.62,531.994 700.55,228.374 998,228.374 "
       id="polygon4171"
       style="fill:#1673b6" /><polygon
       points="947.703,512.615 970.86,253.2 849.276,253.2 849.276,539.904 "
       id="polygon4173"
       style="fill:#35a9db" /><g
       id="g4175"><polygon
         points="849.275,325.068 849.275,287.829 849.404,287.829 942.65,287.829 941.758,297.82 932.605,400.436 849.275,400.436 849.275,363.2 898.551,363.2 901.953,325.068 "
         id="polygon4177"
         style="fill:#ffffff" /><polygon
         points="805.212,419.057 785.061,419.057 767.832,419.057 773.049,477.525 849.326,498.701 849.498,498.652 849.498,459.907 849.336,459.954 807.863,448.754 "
         id="polygon4179"
         style="fill:#ebebeb" /><polygon
         points="849.369,459.94 849.369,498.682 925.709,477.525 926.269,471.234 932.746,398.859 895.386,398.859 890.901,448.729 "
         id="polygon4181"
         style="fill:#ffffff" /><polygon
         points="849.404,325.068 759.576,325.068 759.576,325.068 759.457,325.068 758.711,316.698 757.014,297.82 756.123,287.829 849.404,287.829 849.404,310.957 849.404,324.976 "
         id="polygon4183"
         style="fill:#ebebeb" /><polygon
         points="849.275,400.441 808.447,400.441 808.447,400.441 808.328,400.441 807.582,392.073 805.885,373.195 804.994,363.204 849.275,363.204 849.275,386.333 849.275,400.35 "
         id="polygon4185"
         style="fill:#ebebeb" /></g></g><g
     id="g4187"
     transform="matrix(1.2744688,0,0,1.1341765,-141.02946,95.110595)"><polygon
       points="390.345,408.754 363.275,105.132 660.725,105.132 633.627,408.705 511.818,442.475 "
       id="polygon4189"
       style="fill:#e4a227" /><polygon
       points="511.75,416.287 610.178,389 633.336,129.583 511.75,129.583 "
       id="polygon4191"
       style="fill:#f0bf26" /><g
       id="g4193"
       style="fill:#e6e6e6"><polygon
         points="513.039,63.665 538.709,63.665 513.039,35.806 513.039,22.525 564.936,22.525 564.936,38.071 564.936,38.071 540.246,38.071 565.922,65.931 565.922,79.191 513.039,79.191 "
         id="polygon4195"
         style="fill:#e6e6e6" /><path
         d="m 503.621,22.55 0,56.617 -45.543,0 0,-18.714 26.613,0 0,-37.903 18.928,0 0.002,0 z"
         id="path4197"
         inkscape:connector-curvature="0"
         style="fill:#e6e6e6" /></g><polygon
       points="435.244,356.543 511.521,377.719 511.693,377.67 511.693,338.926 511.531,338.973 470.059,327.773 467.406,298.075 447.256,298.075 430.027,298.075 "
       id="polygon4199"
       style="fill:#ebebeb" /><polygon
       points="516.709,143.954 442.565,143.954 439.811,171.403 431.059,269.438 430.151,279.437 440.186,279.437 516.709,279.437 516.709,242.2 470.855,242.2 476.232,183.758 516.812,182.677 "
       id="polygon4201"
       style="fill:#ebebeb" /><polygon
       points="591.609,151.633 516.629,143.937 516.457,143.985 516.457,182.729 516.62,182.683 557.291,185.132 560.742,223.579 580.893,223.579 598.123,223.579 "
       id="polygon4203"
       style="fill:#ffffff" /><polyline
       points="594.284,182.843 591.093,143.954 512.49,143.954 512.49,168.106 512.49,182.746 512.49,182.843    594.284,182.843  "
       id="polyline4205"
       style="fill:#ffffff" /><polygon
       points="511.564,377.701 587.904,356.543 588.463,350.252 597.215,252.217 598.123,242.218 588.088,242.218 511.564,242.218 511.564,279.454 557.418,279.454 553.096,327.748 511.564,338.959 "
       id="polygon4207"
       style="fill:#ffffff" /><path
       d="M 589.5,181.193"
       id="path4209"
       inkscape:connector-curvature="0"
       style="fill:#ffffff" /><path
       style="fill:#ffffff;fill-opacity:1;stroke:#e6ebe7;stroke-width:1.11790395;stroke-opacity:1"
       d="m 442.80982,174.70184 0,-10.63896 16.74442,0 16.74442,0 0.30362,-21.51965 0.30361,-21.51965 12.03468,-0.31747 12.03467,-0.31747 -0.29668,32.17773 -0.29668,32.17773 -28.78603,0.29835 -28.78603,0.29835 0,-10.63896 z"
       id="path4169"
       inkscape:connector-curvature="0"
       transform="matrix(0.78464063,0,0,0.88169698,110.65744,-83.858725)" /><path
       style="fill:#ffffff;fill-opacity:1;stroke:#e6ebe7;stroke-width:1.11790395;stroke-opacity:1"
       d="m 513.23777,176.37646 0,-8.95987 16.21382,0 16.21382,0 -16.21382,-15.79877 -16.21382,-15.79877 0,-7.67721 0,-7.67721 32.97817,0 32.97816,0 0,8.94323 0,8.94323 -15.93013,0.0224 -15.93013,0.0224 16.57911,15.90771 16.57911,15.9077 -0.3695,7.26638 -0.36951,7.26637 -33.25764,0.29612 -33.25764,0.29611 0,-8.95987 z"
       id="path4171"
       inkscape:connector-curvature="0"
       transform="matrix(0.78464063,0,0,0.88169698,110.65744,-83.858725)" /><path
       style="fill:#ffffff;fill-opacity:1;stroke:#e6ebe7;stroke-width:1.11790395;stroke-opacity:1"
       d="m 443.92773,174.71285 0,-9.47229 16.48908,-0.30937 16.48908,-0.30936 0.30362,-21.51965 0.30361,-21.51965 11.1549,0 11.1549,0 0,31.30131 0,31.30131 -27.94759,0 -27.9476,0 0,-9.4723 z"
       id="path4173"
       inkscape:connector-curvature="0"
       transform="matrix(0.78464063,0,0,0.88169698,110.65744,-83.858725)" /><path
       style="fill:#ffffff;fill-opacity:1;stroke:#e6ebe7;stroke-width:1.11790395;stroke-opacity:1"
       d="m 287.42118,33.827074 0,-31.8602618 11.17904,0 11.17904,0 0,21.7991268 0,21.799127 17.32751,0 17.32751,0 0,10.061135 0,10.061135 -28.50655,0 -28.50655,0 0,-31.860262 z"
       id="path4175"
       inkscape:connector-curvature="0"
       transform="matrix(0.78464063,0,0,0.88169698,110.65744,-83.858725)" /><path
       style="fill:#ffffff;fill-opacity:1;stroke:#e6ebe7;stroke-width:1.11790395;stroke-opacity:1"
       d="m 193.51725,33.827074 0,-31.8602618 12.2041,0 12.20411,0 7.56229,11.1790398 c 4.15926,6.148471 7.88258,11.179039 8.27404,11.179039 0.39146,0 4.11478,-5.030568 8.27403,-11.179039 l 7.56229,-11.1790398 12.20411,0 12.20411,0 0,31.8602618 0,31.860262 -11.70811,0 -11.7081,0 -0.30936,-16.102864 -0.30936,-16.102862 -7.82533,11.024244 c -4.30393,6.063335 -8.10108,11.045868 -8.43811,11.072296 -0.33703,0.02643 -4.36149,-5.108281 -8.94323,-11.410464 l -8.33045,-11.458516 -0.30936,16.489083 -0.30936,16.489083 -11.14916,0 -11.14915,0 0,-31.860262 z"
       id="path4177"
       inkscape:connector-curvature="0"
       transform="matrix(0.78464063,0,0,0.88169698,110.65744,-83.858725)" /><path
       style="fill:#ffffff;fill-opacity:1;stroke:#e6ebe7;stroke-width:1.11790395;stroke-opacity:1"
       d="m 137.62205,43.88821 0,-21.799127 -10.62009,0 -10.62008,0 0,-10.061135 0,-10.0611358 32.97816,0 32.97817,0 0,10.0611358 0,10.061135 -10.62009,0 -10.62009,0 0,21.799127 0,21.799126 -11.73799,0 -11.73799,0 0,-21.799126 z"
       id="path4179"
       inkscape:connector-curvature="0"
       transform="matrix(0.78464063,0,0,0.88169698,110.65744,-83.858725)" /><path
       style="fill:#ffffff;fill-opacity:1;stroke:#e6ebe7;stroke-width:1.11790395;stroke-opacity:1"
       d="m 35.892792,33.827074 0,-31.8602618 11.137089,0 11.137089,0 0.321427,10.3406118 0.321426,10.340611 11.458515,0.318584 11.458516,0.318583 0,-10.659195 0,-10.6591948 11.737991,0 11.737995,0 0,31.8602618 0,31.860262 -11.737995,0 -11.737991,0 0,-11.218147 0,-11.218147 -11.458516,0.318584 -11.458515,0.318584 -0.319958,10.899563 -0.319957,10.899563 -11.138558,0 -11.138558,0 0,-31.860262 z"
       id="path4181"
       inkscape:connector-curvature="0"
       transform="matrix(0.78464063,0,0,0.88169698,110.65744,-83.858725)" /><path
       style="fill:#ffffff;fill-opacity:1;stroke:#e6ebe7;stroke-width:1.11790395;stroke-opacity:1"
       d="m 724.52161,34.944978 0,-31.8602618 28.50655,0 28.50655,0 0,8.9432318 0,8.943231 -16.76856,0 -16.76855,0 0,13.973799 0,13.973799 16.76855,0 16.76856,0 0,8.943232 0,8.943231 -28.50655,0 -28.50655,0 0,-31.860262 z"
       id="path4183"
       inkscape:connector-curvature="0"
       transform="matrix(0.78464063,0,0,0.88169698,110.65744,-83.858725)" /><path
       style="fill:#ffffff;fill-opacity:1;stroke:#e6ebe7;stroke-width:1.11790395;stroke-opacity:1"
       d="m 794.94956,58.420961 0,-8.38428 16.20961,0 c 8.91528,0 16.2096,-0.388316 16.2096,-0.862923 0,-0.474609 -7.29432,-7.806155 -16.2096,-16.292324 l -16.20961,-15.429401 0,-7.183658 0,-7.1836588 32.97817,0 32.97816,0 0,8.3842798 0,8.384279 -15.65065,0 c -8.60786,0 -15.65066,0.388316 -15.65066,0.862924 0,0.474608 7.29433,7.806154 16.20961,16.292324 l 16.20961,15.4294 0,7.183659 0,7.183658 -33.53712,0 -33.53712,0 0,-8.384279 z"
       id="path4185"
       inkscape:connector-curvature="0"
       transform="matrix(0.78464063,0,0,0.88169698,110.65744,-83.858725)" /><path
       style="fill:#ffffff;fill-opacity:1;stroke:#e6ebe7;stroke-width:1.11790395;stroke-opacity:1"
       d="m 874.53276,58.420961 0,-8.38428 16.2096,0 c 8.91529,0 16.20961,-0.344416 16.20961,-0.76537 0,-0.420954 -7.29432,-7.758296 -16.20961,-16.305205 l -16.2096,-15.539834 0,-7.170778 0,-7.1707778 32.97816,0 32.97817,0 0,8.3842798 0,8.384279 -15.65066,0 c -8.60786,0 -15.65065,0.418177 -15.65065,0.92928 0,0.511105 7.29432,7.847319 16.20961,16.302698 l 16.2096,15.373419 0,7.173284 0,7.173284 -33.53712,0 -33.53711,0 0,-8.384279 z"
       id="path4187"
       inkscape:connector-curvature="0"
       transform="matrix(0.78464063,0,0,0.88169698,110.65744,-83.858725)" /></g></svg>